<?xml version="1.0" standalone="no"?>
<!DOCTYPE svg PUBLIC "-//W3C//DTD SVG 20010904//EN"
 "http://www.w3.org/TR/2001/REC-SVG-20010904/DTD/svg10.dtd">
<svg version="1.0" xmlns="http://www.w3.org/2000/svg"
 width="1024.000000pt" height="1024.000000pt" viewBox="0 0 1024.000000 1024.000000"
 preserveAspectRatio="xMidYMid meet">

<g transform="translate(0.000000,1024.000000) scale(0.100000,-0.100000)"
fill="#000000" stroke="none">
<path d="M0 5120 l0 -5120 5120 0 5120 0 0 5120 0 5120 -5120 0 -5120 0 0
-5120z m5196 2543 c214 -234 247 -274 235 -286 -14 -14 -48 18 -194 186 -61
70 -116 127 -123 127 -7 0 -76 -72 -154 -160 -78 -88 -145 -160 -151 -160 -5
0 -12 7 -16 15 -3 10 15 38 53 78 33 35 103 113 157 175 53 62 101 112 105
112 5 0 44 -39 88 -87z m52 -710 c82 -109 197 -261 256 -338 154 -201 147
-192 131 -192 -8 0 -11 5 -8 10 4 6 1 7 -7 2 -8 -5 -11 -4 -7 2 4 6 0 18 -7
28 -12 17 -13 17 -11 -1 0 -11 5 -26 10 -34 5 -8 10 -17 10 -20 0 -3 9 -17 19
-32 10 -15 14 -33 10 -39 -4 -8 -3 -9 4 -5 7 4 12 2 12 -4 0 -6 -7 -13 -15
-16 -14 -6 -13 -8 1 -19 20 -14 11 -35 -14 -35 -15 0 -15 -2 -2 -10 11 -7 11
-10 2 -10 -7 0 -10 -5 -7 -10 4 -6 12 -7 18 -3 7 4 6 -1 -2 -10 -11 -14 -17
-15 -30 -5 -9 7 0 -5 19 -27 19 -22 27 -33 16 -25 -10 8 -25 15 -33 16 -12 2
-12 -1 2 -16 12 -14 13 -20 4 -26 -8 -5 -10 -3 -4 6 5 8 3 11 -6 8 -8 -3 -13
-12 -11 -19 2 -8 0 -11 -4 -7 -4 4 -13 3 -21 -4 -11 -9 -13 -8 -11 3 2 8 -4
13 -14 13 -11 -1 -15 3 -11 10 4 7 1 6 -7 -1 -10 -9 -17 -10 -27 -2 -7 7 -13
8 -13 3 0 -5 -4 -3 -9 4 -4 7 -14 14 -22 15 -8 2 -20 6 -26 10 -7 5 -17 6 -22
2 -5 -3 -13 0 -17 6 -5 8 -3 9 6 4 9 -5 11 -4 6 3 -5 9 -13 9 -28 1 -13 -7
-18 -7 -14 -1 3 6 2 13 -4 17 -5 3 -10 1 -10 -6 0 -8 -4 -8 -15 1 -9 7 -18 10
-21 7 -4 -3 -13 1 -21 9 -8 8 -18 12 -23 9 -5 -3 -11 -1 -15 5 -4 6 -11 8 -16
4 -5 -3 -6 -11 -2 -17 4 -7 0 -6 -10 2 -20 16 -23 26 -4 15 6 -4 -2 6 -18 22
-17 16 -43 45 -57 64 -15 19 -28 32 -30 30 -31 -43 -86 -109 -102 -124 -12
-10 -21 -23 -21 -30 0 -6 -6 -12 -12 -12 -7 -1 -17 -2 -22 -3 -4 0 -8 -11 -7
-23 1 -17 -5 -23 -19 -23 -12 0 -21 -8 -23 -20 -4 -18 -3 -18 14 -5 18 14 18
14 5 -3 -10 -12 -17 -14 -26 -7 -14 12 -50 -21 -38 -35 5 -4 3 -5 -4 -2 -6 4
-21 -6 -35 -24 -13 -17 -38 -47 -57 -67 -18 -20 -45 -52 -58 -69 -14 -18 -30
-30 -36 -26 -6 4 -8 0 -4 -9 3 -9 -3 -25 -13 -36 -10 -11 -16 -23 -12 -26 3
-4 -2 -4 -12 0 -14 5 -17 3 -14 -7 3 -8 0 -19 -6 -25 -28 -29 -55 -64 -50 -64
3 0 -8 -12 -25 -26 -17 -14 -30 -29 -28 -33 3 -9 -49 -71 -55 -66 -2 2 -5 -6
-5 -18 -1 -12 -6 -23 -12 -25 -18 -6 -51 -39 -44 -46 3 -3 0 -6 -9 -6 -8 0
-24 -11 -35 -24 -16 -18 -18 -27 -10 -37 9 -10 7 -9 -6 1 -10 7 -16 19 -13 26
3 8 0 13 -6 11 -6 -1 -64 69 -130 156 l-119 157 37 53 c131 179 986 1317 991
1317 1 0 69 -89 151 -197z m441 -584 c14 -19 19 -28 10 -22 -9 7 -20 9 -24 5
-5 -4 -5 -1 -1 6 8 14 -11 45 -23 38 -4 -3 -13 0 -21 5 -11 7 -9 8 9 6 14 -2
36 -19 50 -38z m52 -66 c13 -16 12 -17 -3 -4 -10 7 -18 15 -18 17 0 8 8 3 21
-13z m30 -40 c13 -16 12 -17 -3 -4 -10 7 -18 15 -18 17 0 8 8 3 21 -13z m30
-40 c13 -16 12 -17 -3 -4 -10 7 -18 15 -18 17 0 8 8 3 21 -13z m-534 -40 c0
-9 -4 -10 -14 -2 -7 6 -13 12 -13 14 0 1 6 2 13 2 8 0 14 -6 14 -14z m21 -26
c-1 -2 4 -12 12 -23 14 -19 14 -19 -7 0 -13 10 -20 23 -17 28 3 5 8 7 11 4 2
-2 3 -6 1 -9z m43 -64 c13 -16 12 -17 -3 -4 -10 7 -18 15 -18 17 0 8 8 3 21
-13z m-1857 -1872 c179 -239 322 -439 319 -445 -3 -6 -3 -8 2 -4 4 4 28 -19
53 -50 67 -84 69 -87 53 -78 -8 6 -7 0 4 -18 17 -25 34 -38 19 -14 -4 7 -3 8
5 4 9 -6 9 -11 1 -21 -12 -15 3 -30 20 -20 17 10 11 -1 -10 -20 -18 -17 -20
-17 -14 -2 9 24 1 21 -27 -9 l-24 -26 23 7 c21 6 23 4 18 -17 -6 -19 -5 -20 4
-5 6 9 20 17 31 17 13 0 18 4 13 13 -4 6 14 -10 39 -38 25 -27 44 -51 43 -51
-5 -5 -1836 -12 -1836 -7 0 3 19 30 43 58 23 29 119 153 212 276 94 122 220
287 280 365 61 78 175 228 255 332 80 104 146 189 147 188 1 0 148 -196 327
-435z"/>
<path d="M5566 6507 c3 -10 9 -15 12 -12 3 3 0 11 -7 18 -10 9 -11 8 -5 -6z"/>
<path d="M5574 6155 c0 -19 3 -22 13 -13 10 8 10 14 2 24 -15 18 -15 18 -15
-11z"/>
<path d="M3963 3513 c-15 -5 -17 -23 -4 -23 5 0 11 7 15 15 3 8 4 15 3 14 -1
0 -8 -3 -14 -6z"/>
</g>
</svg>
